<mxfile host="Electron" modified="2023-08-08T11:53:10.957Z" agent="Mozilla/5.0 (Windows NT 10.0; Win64; x64) AppleWebKit/537.36 (KHTML, like Gecko) draw.io/21.6.5 Chrome/114.0.5735.243 Electron/25.3.1 Safari/537.36" etag="oy2e1oJ-6n8l_hMD99Ld" version="21.6.5" type="device">
  <diagram name="Page-1" id="YKk2bMAgdf-KZBzfz0ZD">
    <mxGraphModel dx="1338" dy="828" grid="1" gridSize="10" guides="1" tooltips="1" connect="1" arrows="1" fold="1" page="1" pageScale="1" pageWidth="850" pageHeight="1100" math="0" shadow="0">
      <root>
        <mxCell id="0" />
        <mxCell id="1" parent="0" />
        <mxCell id="KK9asJ3vJhRPjbGr9KHo-1" value="MCF" style="swimlane;startSize=20;horizontal=1;containerType=tree;" vertex="1" parent="1">
          <mxGeometry x="80" y="70" width="360" height="530" as="geometry">
            <mxRectangle x="80" y="70" width="120" height="30" as="alternateBounds" />
          </mxGeometry>
        </mxCell>
        <mxCell id="KK9asJ3vJhRPjbGr9KHo-3" value="My Cash Flow" style="whiteSpace=wrap;html=1;treeFolding=1;treeMoving=1;newEdgeStyle={&quot;edgeStyle&quot;:&quot;elbowEdgeStyle&quot;,&quot;startArrow&quot;:&quot;none&quot;,&quot;endArrow&quot;:&quot;none&quot;};" vertex="1" parent="KK9asJ3vJhRPjbGr9KHo-1">
          <mxGeometry y="20" width="360" height="30" as="geometry" />
        </mxCell>
        <mxCell id="KK9asJ3vJhRPjbGr9KHo-22" value="Schedules" style="rounded=0;whiteSpace=wrap;html=1;" vertex="1" parent="KK9asJ3vJhRPjbGr9KHo-1">
          <mxGeometry x="120" y="50" width="120" height="40" as="geometry" />
        </mxCell>
        <mxCell id="KK9asJ3vJhRPjbGr9KHo-24" value="Ledger" style="rounded=0;whiteSpace=wrap;html=1;" vertex="1" parent="KK9asJ3vJhRPjbGr9KHo-1">
          <mxGeometry x="240" y="50" width="120" height="40" as="geometry" />
        </mxCell>
        <mxCell id="KK9asJ3vJhRPjbGr9KHo-23" value="Forecast" style="rounded=0;whiteSpace=wrap;html=1;" vertex="1" parent="KK9asJ3vJhRPjbGr9KHo-1">
          <mxGeometry y="50" width="120" height="40" as="geometry" />
        </mxCell>
        <mxCell id="KK9asJ3vJhRPjbGr9KHo-26" value="Column Headers" style="swimlane;fontStyle=0;childLayout=stackLayout;horizontal=1;startSize=30;horizontalStack=0;resizeParent=1;resizeParentMax=0;resizeLast=0;collapsible=1;marginBottom=0;whiteSpace=wrap;html=1;" vertex="1" parent="KK9asJ3vJhRPjbGr9KHo-1">
          <mxGeometry y="90" width="240" height="120" as="geometry" />
        </mxCell>
        <mxCell id="KK9asJ3vJhRPjbGr9KHo-27" value="Transaction 1" style="text;strokeColor=none;fillColor=none;align=left;verticalAlign=middle;spacingLeft=4;spacingRight=4;overflow=hidden;points=[[0,0.5],[1,0.5]];portConstraint=eastwest;rotatable=0;whiteSpace=wrap;html=1;" vertex="1" parent="KK9asJ3vJhRPjbGr9KHo-26">
          <mxGeometry y="30" width="240" height="30" as="geometry" />
        </mxCell>
        <mxCell id="KK9asJ3vJhRPjbGr9KHo-28" value="&lt;span style=&quot;color: rgb(240, 240, 240); font-family: Helvetica; font-size: 12px; font-style: normal; font-variant-ligatures: normal; font-variant-caps: normal; font-weight: 400; letter-spacing: normal; orphans: 2; text-align: left; text-indent: 0px; text-transform: none; widows: 2; word-spacing: 0px; -webkit-text-stroke-width: 0px; background-color: rgb(42, 37, 47); text-decoration-thickness: initial; text-decoration-style: initial; text-decoration-color: initial; float: none; display: inline !important;&quot;&gt;Transaction 2&lt;/span&gt;" style="text;strokeColor=none;fillColor=none;align=left;verticalAlign=middle;spacingLeft=4;spacingRight=4;overflow=hidden;points=[[0,0.5],[1,0.5]];portConstraint=eastwest;rotatable=0;whiteSpace=wrap;html=1;" vertex="1" parent="KK9asJ3vJhRPjbGr9KHo-26">
          <mxGeometry y="60" width="240" height="30" as="geometry" />
        </mxCell>
        <mxCell id="KK9asJ3vJhRPjbGr9KHo-30" value="&lt;span style=&quot;color: rgb(240, 240, 240); font-family: Helvetica; font-size: 12px; font-style: normal; font-variant-ligatures: normal; font-variant-caps: normal; font-weight: 400; letter-spacing: normal; orphans: 2; text-align: left; text-indent: 0px; text-transform: none; widows: 2; word-spacing: 0px; -webkit-text-stroke-width: 0px; background-color: rgb(42, 37, 47); text-decoration-thickness: initial; text-decoration-style: initial; text-decoration-color: initial; float: none; display: inline !important;&quot;&gt;Transaction 3&lt;/span&gt;" style="text;strokeColor=none;fillColor=none;align=left;verticalAlign=middle;spacingLeft=4;spacingRight=4;overflow=hidden;points=[[0,0.5],[1,0.5]];portConstraint=eastwest;rotatable=0;whiteSpace=wrap;html=1;" vertex="1" parent="KK9asJ3vJhRPjbGr9KHo-26">
          <mxGeometry y="90" width="240" height="30" as="geometry" />
        </mxCell>
        <mxCell id="KK9asJ3vJhRPjbGr9KHo-33" value="Totals" style="whiteSpace=wrap;html=1;treeFolding=1;treeMoving=1;newEdgeStyle={&quot;edgeStyle&quot;:&quot;elbowEdgeStyle&quot;,&quot;startArrow&quot;:&quot;none&quot;,&quot;endArrow&quot;:&quot;none&quot;};" vertex="1" parent="KK9asJ3vJhRPjbGr9KHo-1">
          <mxGeometry y="210" width="240" height="30" as="geometry" />
        </mxCell>
        <mxCell id="KK9asJ3vJhRPjbGr9KHo-34" value="Chart&lt;br&gt;Account Summaries" style="rounded=0;whiteSpace=wrap;html=1;" vertex="1" parent="KK9asJ3vJhRPjbGr9KHo-1">
          <mxGeometry x="240" y="90" width="120" height="150" as="geometry" />
        </mxCell>
        <mxCell id="KK9asJ3vJhRPjbGr9KHo-35" value="" style="strokeWidth=1;shadow=0;dashed=0;align=center;html=1;shape=mxgraph.mockup.containers.marginRect2;rectMarginTop=32;strokeColor=#666666;gradientColor=none;whiteSpace=wrap;" vertex="1" parent="1">
          <mxGeometry x="480" y="120" width="360" height="200" as="geometry" />
        </mxCell>
        <mxCell id="KK9asJ3vJhRPjbGr9KHo-36" value="Forecast" style="strokeColor=inherit;fillColor=inherit;gradientColor=inherit;strokeWidth=1;shadow=0;dashed=0;align=center;html=1;shape=mxgraph.mockup.containers.rrect;rSize=0;fontSize=17;fontColor=#666666;gradientColor=none;" vertex="1" parent="KK9asJ3vJhRPjbGr9KHo-35">
          <mxGeometry width="120" height="25" relative="1" as="geometry">
            <mxPoint as="offset" />
          </mxGeometry>
        </mxCell>
        <mxCell id="KK9asJ3vJhRPjbGr9KHo-37" value="Schedules" style="strokeWidth=1;shadow=0;dashed=0;align=center;html=1;shape=mxgraph.mockup.containers.rrect;rSize=0;fontSize=17;fontColor=#ffffff;strokeColor=#008cff;fillColor=#008cff;" vertex="1" parent="KK9asJ3vJhRPjbGr9KHo-35">
          <mxGeometry width="110" height="25" relative="1" as="geometry">
            <mxPoint x="125" as="offset" />
          </mxGeometry>
        </mxCell>
        <mxCell id="KK9asJ3vJhRPjbGr9KHo-38" value="Ledger" style="strokeColor=inherit;fillColor=inherit;gradientColor=inherit;strokeWidth=1;shadow=0;dashed=0;align=center;html=1;shape=mxgraph.mockup.containers.rrect;rSize=0;fontSize=17;fontColor=#666666;gradientColor=none;" vertex="1" parent="KK9asJ3vJhRPjbGr9KHo-35">
          <mxGeometry width="120" height="25" relative="1" as="geometry">
            <mxPoint x="240" as="offset" />
          </mxGeometry>
        </mxCell>
        <mxCell id="KK9asJ3vJhRPjbGr9KHo-39" value="" style="strokeWidth=1;shadow=0;dashed=0;align=center;html=1;shape=mxgraph.mockup.containers.topButton;rSize=5;strokeColor=#008cff;fillColor=#008cff;gradientColor=none;resizeWidth=1;movable=0;deletable=1;" vertex="1" parent="KK9asJ3vJhRPjbGr9KHo-35">
          <mxGeometry width="360" height="7" relative="1" as="geometry">
            <mxPoint y="25" as="offset" />
          </mxGeometry>
        </mxCell>
      </root>
    </mxGraphModel>
  </diagram>
</mxfile>
